<svg width="68" height="599" viewBox="0 0 68 599" fill="none" xmlns="http://www.w3.org/2000/svg">
<path d="M57.04 574.938H50.716L41.54 592.112L32.364 574.938H26.04L38.75 598.746H44.33L57.04 574.938ZM62 562.838V534.194H56.42V557.258H41.54V545.726H35.96V557.258H21.08L21.08 534.194H15.5L15.5 562.838H62ZM62 524.512V518.312L45.136 510.19L62 502.006V495.868L38.75 507.09L15.5 495.868L15.5 502.006L32.364 510.19L15.5 518.312L15.5 524.512L38.75 513.29L62 524.512ZM62 486.185V480.605H41.54L41.54 471.863C41.54 457.603 28.52 457.541 28.52 457.541C28.52 457.541 15.5 457.603 15.5 471.863L15.5 486.185H62ZM35.96 480.605H21.08V471.863C21.08 463.183 28.52 463.121 28.52 463.121C28.52 463.121 35.96 463.183 35.96 471.863L35.96 480.605ZM62 447.859L62 419.215H56.42L56.42 442.279H41.54V430.747H35.96V442.279H21.08L21.08 419.215H15.5L15.5 447.859H62ZM62 409.533V403.953H41.54V397.009L62 387.027V380.889L41.106 390.933C41.106 389.073 37.324 380.889 28.52 380.889C28.52 380.889 15.5 380.951 15.5 395.211L15.5 409.533H62ZM35.96 403.953H21.08V395.211C21.08 386.531 28.52 386.469 28.52 386.469C28.52 386.469 35.96 386.531 35.96 395.211V403.953ZM62 369.967V343.803H56.42V354.095H21.08V343.803H15.5L15.5 369.967H21.08L21.08 359.675H56.42V369.967H62ZM12.71 330.401V324.387L5.146 318.497L12.71 312.607V306.655L0 315.707L0 321.287L12.71 330.401ZM62 332.881L62 304.237H56.42L56.42 327.301H41.54L41.54 315.769H35.96L35.96 327.301H21.08L21.08 304.237H15.5L15.5 332.881H62ZM62 294.555V288.975H27.032L62 272.111V265.911H15.5L15.5 271.491H50.468L15.5 288.355L15.5 294.555H62ZM62 241.906C62 236.326 62 227.584 52.08 227.584V233.164C56.42 233.164 56.42 238.93 56.42 241.782V241.906C56.42 247.486 52.08 250.648 38.75 250.648C25.42 250.648 21.08 247.486 21.08 241.906V241.782C21.08 238.93 21.08 233.164 25.42 233.164V227.584C15.5 227.584 15.5 236.326 15.5 241.906C15.5 250.586 21.08 256.228 38.75 256.228C56.42 256.228 62 250.586 62 241.906ZM62 216.662V190.498H56.42V200.79H21.08V190.498H15.5L15.5 216.662H21.08L21.08 206.37H56.42V216.662H62ZM62 179.576V173.81L49.29 170.71V159.798L62 156.698V150.932L15.5 162.278L15.5 168.23L62 179.576ZM43.71 169.346L27.032 165.254L43.71 161.162V169.346ZM62 126.928C62 118.248 62 112.606 47.616 112.606C36.828 112.606 34.596 115.334 34.596 126.928C34.596 134.43 34.596 135.67 27.156 135.67C21.08 135.67 21.08 132.508 21.08 126.928C21.08 119.674 21.514 118.186 26.66 118.186V112.606C17.608 112.606 15.5 118.248 15.5 126.928C15.5 135.608 15.5 141.25 27.156 141.25C40.176 141.25 40.176 135.608 40.176 126.928C40.176 119.054 40.424 118.186 47.616 118.186C56.42 118.186 56.42 121.348 56.42 126.928C56.42 133.748 55.676 135.67 50.84 135.67V141.25C62 141.25 62 135.608 62 126.928ZM67.58 62.1796V56.2276L15.5 38.3716V44.3236L67.58 62.1796ZM57.04 23.8534L44.33 0.045419H38.75L26.04 23.8534H32.364L41.54 6.74142L50.716 23.8534H57.04Z" fill="#818181" fill-opacity="0.63"/>
</svg>
